HIERARCHY
ROOT Hips
{
	OFFSET -10.056300 472.549988 7.733724
	CHANNELS 6 Xposition Yposition Zposition Zrotation Xrotation Yrotation
	JOINT Spine
	{
		OFFSET 0.000000 0.000000 0.000000
		CHANNELS 6 Xposition Yposition Zposition Zrotation Xrotation Yrotation
		JOINT Spine1
		{
			OFFSET 19.000000 0.000000 0.000000
			CHANNELS 3 Zrotation Xrotation Yrotation
			JOINT Neck
			{
				OFFSET 22.500000 0.000000 0.600001
				CHANNELS 6 Xposition Yposition Zposition Zrotation Xrotation Yrotation
				JOINT Head
				{
					OFFSET 14.000000 0.000000 0.030878
					CHANNELS 6 Xposition Yposition Zposition Zrotation Xrotation Yrotation
					End Site
					{
						OFFSET 17.000000 0.000000 0.000000
					}
				}
			}
			JOINT LeftShoulder
			{
				OFFSET 19.799999 -4.299988 3.700000
				CHANNELS 6 Xposition Yposition Zposition Zrotation Xrotation Yrotation
				JOINT LeftArm
				{
					OFFSET 8.000000 0.000000 0.000000
					CHANNELS 6 Xposition Yposition Zposition Zrotation Xrotation Yrotation
					JOINT LeftForeArm
					{
						OFFSET 15.200001 0.000000 0.000000
						CHANNELS 6 Xposition Yposition Zposition Zrotation Xrotation Yrotation
						JOINT LeftHand
						{
							OFFSET 17.799999 0.000000 0.000000
							CHANNELS 6 Xposition Yposition Zposition Zrotation Xrotation Yrotation
							End Site
							{
								OFFSET 7.199997 0.000000 0.000000
							}
						}
					}
				}
			}
			JOINT RightShoulder
			{
				OFFSET 19.799999 4.299988 3.699999
				CHANNELS 6 Xposition Yposition Zposition Zrotation Xrotation Yrotation
				JOINT RightArm
				{
					OFFSET 8.000000 -0.151642 0.000000
					CHANNELS 6 Xposition Yposition Zposition Zrotation Xrotation Yrotation
					JOINT RightForeArm
					{
						OFFSET 15.200001 0.000000 0.000000
						CHANNELS 6 Xposition Yposition Zposition Zrotation Xrotation Yrotation
						JOINT RightHand
						{
							OFFSET 17.799999 0.000000 0.000000
							CHANNELS 6 Xposition Yposition Zposition Zrotation Xrotation Yrotation
							End Site
							{
								OFFSET 7.199997 0.000000 0.000000
							}
						}
					}
				}
			}
		}
	}
	JOINT LeftUpLeg
	{
		OFFSET 5.984250 -4.788788 -7.665999
		CHANNELS 6 Xposition Yposition Zposition Zrotation Xrotation Yrotation
		JOINT LeftLeg
		{
			OFFSET 16.000000 0.000000 0.000000
			CHANNELS 6 Xposition Yposition Zposition Zrotation Xrotation Yrotation
			JOINT LeftFoot
			{
				OFFSET 18.000000 0.000000 0.000000
				CHANNELS 6 Xposition Yposition Zposition Zrotation Xrotation Yrotation
				End Site
				{
					OFFSET 0.000000 0.000000 -10.800000
				}
			}
		}
	}
	JOINT RightUpLeg
	{
		OFFSET 5.984250 4.788788 -7.665980
		CHANNELS 6 Xposition Yposition Zposition Zrotation Xrotation Yrotation
		JOINT RightLeg
		{
			OFFSET 16.000000 0.000000 0.000000
			CHANNELS 6 Xposition Yposition Zposition Zrotation Xrotation Yrotation
			JOINT RightFoot
			{
				OFFSET 18.000000 0.000000 0.000000
				CHANNELS 6 Xposition Yposition Zposition Zrotation Xrotation Yrotation
				End Site
				{
					OFFSET 0.000000 0.000000 -10.800000
				}
			}
		}
	}
	JOINT Tail
	{
		OFFSET 6.836960 0.000000 -0.722574
		CHANNELS 6 Xposition Yposition Zposition Zrotation Xrotation Yrotation
		JOINT Tail1
		{
			OFFSET 12.000000 0.000000 0.000000
			CHANNELS 6 Xposition Yposition Zposition Zrotation Xrotation Yrotation
			End Site
			{
				OFFSET 11.999999 0.000000 0.000000
			}
		}
	}
}
MOTION
Frames: 9
Frame Time: 0.041667
14.720546 -4.296783 47.365631 85.791076 -6.742415 8.386017 -0.000006 0.000059 0.000002 4.059704 -0.399019 165.916975 -3.226129 0.866972 1.470857 22.499987 0.000060 0.599995 9.019293 -2.584899 8.970052 13.999982 0.000012 0.030958 91.643025 69.778039 -88.383816 19.800013 -4.300027 3.699996 17.219009 -135.829308 67.563227 7.999994 -0.000001 -0.000009 -58.543177 160.995919 -58.857113 15.199974 0.000039 -0.000007 23.628797 -8.653064 62.925153 17.799990 -0.000013 0.000007 -4.383800 4.711643 -23.417082 19.800007 4.300008 3.699985 -15.155792 -51.820259 -68.683412 8.000008 -0.151607 0.000018 -55.474875 13.659229 -50.422307 15.200004 0.000047 -0.000002 22.018368 -3.147592 66.365226 17.799995 -0.000013 -0.000005 5.893856 0.669319 12.830797 5.984245 -4.788712 -7.665999 16.317556 -4.298362 133.051047 15.999986 0.000054 -0.000010 12.783019 -5.592160 -78.309690 18.000004 0.000061 -0.000001 -5.884627 1.430179 -43.245162 5.984245 4.788819 -7.665972 0.573316 3.019883 118.351264 15.999998 0.000037 -0.000001 -5.965582 1.310320 -76.916898 17.999998 0.000017 -0.000003 0.032148 1.493933 -46.129677 6.836966 0.000035 -0.722540 -55.685760 31.959702 70.864381 11.999997 -0.000004 -0.000021 3.350503 -52.229996 3.089241 
14.628131 -5.021729 47.390232 85.646747 -6.813826 8.116032 -0.000005 0.000067 -0.000001 4.322585 -0.393486 165.718202 -3.025652 0.788849 2.210869 22.499987 0.000064 0.599999 9.104164 -2.661186 9.443642 13.999986 0.000004 0.030953 90.505655 69.345736 -87.612025 19.800011 -4.299990 3.699979 17.409041 -135.137656 66.802918 7.999983 -0.000031 -0.000012 -58.000225 159.593941 -58.576583 15.199993 0.000036 -0.000028 34.941356 -11.036402 68.268383 17.799995 0.000038 0.000009 -11.676803 9.312442 -29.710681 19.800003 4.299988 3.699991 -15.143130 -50.977158 -69.280296 7.999988 -0.151644 0.000021 -55.509190 12.927264 -51.665515 15.199990 0.000043 -0.000013 22.207515 -3.164005 66.573512 17.799995 0.000017 -0.000002 6.530190 0.745105 13.283987 5.984242 -4.788728 -7.666002 16.064330 -4.305314 133.346111 15.999990 0.000010 -0.000003 14.181989 -5.988125 -72.119865 18.000011 0.000046 0.000002 -6.257120 1.885066 -47.043071 5.984247 4.788827 -7.665982 0.544131 3.130435 117.381609 16.000000 0.000031 0.000005 -6.179841 1.287752 -76.811447 18.000002 0.000042 0.000001 0.096464 1.493032 -45.867336 6.836975 0.000038 -0.722533 -55.827764 31.963339 71.903737 12.000001 -0.000000 -0.000029 3.912627 -54.080963 3.792891 
14.568648 -5.692535 47.380539 85.498068 -6.729804 7.962606 -0.000008 0.000069 0.000004 4.958378 -0.438705 165.678601 -2.165945 0.659537 2.536451 22.499990 0.000064 0.599995 8.832352 -2.709921 9.878089 13.999988 -0.000004 0.030937 89.918491 69.282215 -87.211639 19.800005 -4.299991 3.699994 17.519365 -133.885846 65.880405 7.999974 -0.000001 -0.000004 -58.011795 158.420801 -57.516722 15.199987 0.000046 -0.000017 45.204490 -11.185985 72.596646 17.799990 0.000006 0.000001 -19.905543 13.764218 -30.621241 19.800018 4.300012 3.699970 -15.245667 -50.108607 -69.553941 7.999996 -0.151642 0.000017 -55.711995 12.458536 -52.547299 15.199981 0.000039 -0.000010 22.776441 -3.235842 66.387035 17.799997 0.000041 -0.000008 6.979670 0.836047 13.958594 5.984231 -4.788732 -7.665998 15.573152 -4.597407 133.489968 15.999975 0.000006 0.000000 16.267994 -5.813185 -66.353976 18.000006 0.000045 0.000002 -6.715391 2.358813 -50.640262 5.984245 4.788787 -7.665979 0.366694 3.138347 116.463864 16.000011 0.000029 0.000002 -6.171844 1.375937 -76.805436 17.999996 0.000022 0.000000 0.072937 1.488828 -45.427192 6.836977 0.000032 -0.722560 -55.926497 31.905576 72.653173 12.000008 0.000028 -0.000053 4.407896 -55.676331 4.464986 
14.561030 -6.295868 47.331135 85.376975 -6.559708 7.930333 -0.000010 0.000048 -0.000003 5.459785 -0.335877 165.500169 -1.613160 0.425038 3.067020 22.499990 0.000063 0.599996 8.743803 -2.695371 10.218775 13.999986 0.000001 0.030967 90.264700 68.248685 -87.349834 19.800013 -4.299963 3.699984 17.580635 -132.628244 64.986436 7.999960 -0.000014 0.000001 -57.376683 157.532330 -56.701246 15.199974 -0.000012 0.000002 54.486331 -9.344405 75.609361 17.800005 0.000051 0.000006 -27.209184 16.992520 -29.119910 19.800007 4.299979 3.699965 -15.238470 -49.091145 -70.154683 8.000008 -0.151616 0.000005 -56.095534 11.895443 -53.051876 15.199976 0.000047 -0.000009 22.901477 -3.075374 66.219831 17.799995 0.000018 -0.000003 7.138417 0.857174 14.025460 5.984235 -4.788731 -7.666002 15.086740 -4.858214 133.676296 15.999987 0.000041 -0.000002 17.238040 -5.604005 -61.943211 18.000008 0.000057 0.000003 -6.962355 2.772755 -53.871297 5.984246 4.788811 -7.665980 0.228688 3.186589 115.529918 16.000004 0.000025 -0.000001 -6.517762 1.405118 -76.867973 17.999998 0.000033 -0.000004 0.145199 1.473807 -45.042680 6.836957 0.000033 -0.722568 -56.162542 31.813921 73.394979 12.000004 0.000019 -0.000044 4.916273 -57.352846 4.969840 
14.624223 -6.799042 47.261829 85.146511 -6.091373 8.189057 -0.000005 0.000052 -0.000003 6.023451 -0.283170 165.155586 -1.135385 0.247847 3.603424 22.499994 0.000046 0.599997 8.772230 -2.347197 10.202480 13.999959 -0.000009 0.030945 90.268204 67.774027 -87.733438 19.800003 -4.299996 3.699981 17.640521 -131.466293 64.074339 7.999968 -0.000063 -0.000010 -55.681154 155.288968 -56.248169 15.199974 -0.000001 -0.000008 62.697530 -6.192719 77.380470 17.800020 0.000048 -0.000009 -34.594799 18.806962 -24.868534 19.800003 4.300002 3.699981 -15.201710 -47.881037 -70.872324 8.000040 -0.151670 0.000005 -56.073087 11.496806 -53.415867 15.199981 0.000034 -0.000011 22.903308 -3.188598 66.030820 17.799995 0.000034 -0.000001 6.870816 0.874679 14.018245 5.984239 -4.788736 -7.666008 14.756441 -5.168262 133.855807 15.999997 0.000051 -0.000001 17.794888 -5.264262 -59.821071 18.000008 0.000070 0.000003 -7.066652 3.007731 -55.694534 5.984251 4.788826 -7.665979 0.052070 2.959343 114.408298 16.000008 0.000011 0.000006 -7.078686 1.392308 -76.812280 17.999996 0.000016 -0.000001 0.305279 1.450426 -44.999684 6.836983 0.000036 -0.722557 -55.927740 31.909373 73.639097 12.000010 0.000021 -0.000069 5.202919 -59.006960 5.429924 
14.739034 -7.197845 47.171326 84.892838 -5.440110 8.707657 -0.000010 0.000067 0.000000 6.613795 -0.319174 164.735570 -0.508048 0.136437 3.967778 22.499990 0.000066 0.599992 8.556146 -1.998142 10.127507 13.999963 0.000011 0.030955 90.862560 67.120535 -88.422099 19.800011 -4.300027 3.699962 17.665851 -130.457761 63.279278 7.999999 -0.000053 0.000009 -53.549021 152.867188 -55.657081 15.199972 0.000010 -0.000005 66.592350 -2.612478 77.681804 17.800032 0.000056 -0.000001 -36.650839 18.797630 -22.770449 19.800007 4.300009 3.699980 -15.227502 -46.793373 -71.325091 7.999998 -0.151643 0.000011 -56.184614 10.751642 -53.601590 15.199981 0.000050 -0.000004 22.714151 -3.433945 65.642394 17.800001 -0.000002 -0.000002 6.644065 0.886600 13.921922 5.984235 -4.788724 -7.666006 14.648428 -5.170761 133.876967 15.999973 0.000065 -0.000005 16.838546 -5.357890 -59.710108 17.999996 0.000069 0.000005 -6.834407 3.085401 -56.884165 5.984247 4.788810 -7.665978 -0.185301 2.617941 113.421042 15.999997 0.000018 -0.000001 -7.777105 1.432618 -77.287907 17.999996 0.000022 0.000003 0.564833 1.427415 -44.932160 6.836972 0.000044 -0.722564 -55.661872 32.036545 73.636167 12.000009 0.000030 -0.000042 5.529355 -60.742477 5.760502 
14.880832 -7.514893 47.045135 84.478150 -4.635220 9.332947 -0.000006 0.000066 0.000002 7.373487 -0.448686 164.216736 0.164138 0.101090 4.486454 22.499989 0.000029 0.600002 8.465588 -1.597461 9.893603 13.999972 0.000012 0.030946 90.827746 66.296152 -88.850338 19.800018 -4.299970 3.699973 17.696385 -129.896702 62.766686 8.000010 0.000014 0.000004 -51.487346 150.965745 -54.743348 15.199980 0.000015 -0.000012 64.865951 0.891135 77.577466 17.800003 0.000064 0.000006 -33.397364 17.197795 -22.680227 19.799999 4.300035 3.700002 -15.102744 -45.754566 -72.061310 8.000002 -0.151609 0.000013 -56.510707 9.382449 -53.473264 15.199979 0.000035 -0.000004 22.504133 -3.727074 65.091532 17.799995 0.000029 -0.000001 6.724033 0.872493 13.793976 5.984231 -4.788725 -7.666005 14.616887 -5.171905 133.553817 15.999992 0.000041 -0.000002 15.139616 -5.637511 -60.658152 18.000002 0.000023 0.000003 -6.466376 3.101762 -57.906207 5.984246 4.788821 -7.665977 -0.344165 2.129837 112.495504 16.000000 0.000006 0.000003 -8.036557 1.513947 -77.833298 17.999998 0.000038 0.000000 0.671590 1.396424 -44.698127 6.836950 0.000028 -0.722561 -55.108422 32.158289 73.344709 12.000002 0.000012 -0.000047 5.688982 -62.320716 6.021124 
15.069943 -7.789520 46.949039 84.028928 -3.768080 10.011414 -0.000010 0.000016 0.000005 8.137266 -0.690344 163.638137 1.002757 0.153578 5.063905 22.499990 0.000053 0.599996 8.107780 -1.313239 9.507172 13.999956 0.000012 0.030976 91.226561 65.736896 -89.392744 19.800007 -4.299976 3.699942 17.698577 -129.567241 62.494995 7.999978 0.000010 -0.000012 -49.725597 149.954276 -53.473814 15.199966 0.000031 0.000001 59.433608 3.776907 77.785787 17.800020 0.000037 -0.000002 -26.809821 14.440794 -23.354852 19.799997 4.299981 3.699991 -15.055537 -44.777221 -72.555399 8.000017 -0.151671 0.000012 -56.548359 8.322546 -53.575857 15.199987 0.000032 -0.000004 22.320457 -4.118321 64.874448 17.799999 0.000020 -0.000003 6.217926 0.863098 13.477427 5.984234 -4.788750 -7.665998 14.614703 -5.321262 132.631837 15.999981 0.000059 0.000001 13.001779 -6.226712 -61.818799 18.000006 0.000068 0.000003 -6.207722 2.904332 -56.745478 5.984249 4.788779 -7.665974 -0.409645 1.534655 111.631041 16.000002 0.000005 0.000003 -8.346751 1.520102 -78.319997 17.999998 0.000015 0.000003 0.815787 1.366009 -44.759872 6.836961 0.000013 -0.722569 -54.686524 32.144947 73.012038 11.999997 0.000027 -0.000036 6.128036 -64.033030 6.329080 
15.304923 -8.123901 46.889439 83.744178 -2.922661 10.513082 -0.000005 0.000040 0.000001 8.505485 -0.868023 163.266779 1.567740 0.215679 5.514147 22.499994 0.000060 0.599999 7.690996 -0.910852 9.295428 13.999951 -0.000013 0.030952 91.730684 64.919883 -90.068742 19.800018 -4.300008 3.699973 17.691802 -129.237069 62.237025 7.999993 -0.000016 -0.000004 -48.452440 148.598634 -52.114917 15.199999 0.000005 0.000001 50.508559 5.589358 78.112475 17.800007 0.000023 -0.000010 -18.581907 10.384578 -22.023914 19.800009 4.300002 3.699983 -15.033982 -43.980575 -72.897407 8.000057 -0.151634 0.000003 -56.921629 7.400491 -53.554496 15.199995 0.000050 -0.000006 22.338156 -4.481536 64.218395 17.799999 0.000027 0.000004 6.088541 0.859841 13.332630 5.984243 -4.788723 -7.666001 14.719555 -5.885746 131.778542 15.999979 0.000049 -0.000002 12.857271 -6.501418 -62.872670 18.000008 0.000065 0.000001 -6.365574 2.779093 -55.074609 5.984247 4.788816 -7.665979 -0.350780 0.821102 110.902232 16.000002 0.000014 0.000005 -8.461645 1.480138 -78.661390 18.000000 0.000036 -0.000001 0.906191 1.357701 -45.172416 6.836979 0.000033 -0.722573 -54.677594 31.900013 72.883630 11.999993 0.000047 -0.000055 6.558518 -65.647031 6.594948 
